<svg width="338" height="139" viewBox="0 0 338 139" fill="none" xmlns="http://www.w3.org/2000/svg">
<g filter="url(#filter0_d_379_57)">
<mask id="path-1-inside-1_379_57" fill="white">
<path d="M227 49.01C227 47.3532 228.344 46.01 230 46.01H237.25C238.907 46.01 240.25 47.3532 240.25 49.01V107.76C240.25 109.417 238.907 110.76 237.25 110.76H230C228.344 110.76 227 109.417 227 107.76V49.01Z"/>
<path d="M172.611 45.76C173.862 45.76 174.981 46.5361 175.42 47.7075L188.725 83.2191C189.694 85.8057 193.347 85.819 194.335 83.2397L207.952 47.687C208.397 46.5264 209.511 45.76 210.754 45.76H218.88C220.987 45.76 222.438 47.8742 221.679 49.8396L189.619 132.965C189.172 134.122 188.06 134.885 186.82 134.885H178.789C176.689 134.885 175.239 132.783 175.984 130.82L184.098 109.451C184.359 108.764 184.359 108.006 184.098 107.32L162.237 49.8262C161.49 47.8629 162.94 45.76 165.041 45.76H172.611Z"/>
<path d="M97.438 69.01C97.438 64.7183 98.4797 60.8225 100.563 57.3225C102.688 53.8225 105.521 51.0308 109.063 48.9475C112.605 46.8225 116.521 45.76 120.813 45.76H153.938C155.595 45.76 156.938 47.1032 156.938 48.76V107.51C156.938 109.167 155.595 110.51 153.938 110.51H146.75C145.094 110.51 143.75 109.167 143.75 107.51V61.9475C143.75 60.2907 142.407 58.9475 140.75 58.9475H120.813C118.021 58.9475 115.625 59.9475 113.625 61.9475C111.625 63.9058 110.625 66.3017 110.625 69.135V87.01C110.625 89.8433 111.625 92.2808 113.625 94.3225C115.625 96.3225 118.021 97.3225 120.813 97.3225H133.25C134.907 97.3225 136.25 98.6657 136.25 100.323V107.51C136.25 109.167 134.907 110.51 133.25 110.51H120.813C116.521 110.51 112.605 109.468 109.063 107.385C105.521 105.26 102.688 102.427 100.563 98.885C98.4797 95.3433 97.438 91.4267 97.438 87.135V69.01Z"/>
<path d="M61.3755 63.885C61.3755 60.5517 62.2088 57.51 63.8755 54.76C65.5838 52.01 67.8338 49.8225 70.6255 48.1975C73.4588 46.5725 76.5838 45.76 80.0005 45.76H91.438C93.0949 45.76 94.438 47.1032 94.438 48.76V55.885C94.438 57.5419 93.0949 58.885 91.438 58.885H80.0005C78.5005 58.885 77.2088 59.4058 76.1255 60.4475C75.0838 61.4475 74.563 62.6767 74.563 64.135V107.51C74.563 109.167 73.2199 110.51 71.563 110.51H64.3755C62.7186 110.51 61.3755 109.167 61.3755 107.51V63.885Z"/>
<path d="M45.813 34.885C47.4698 34.885 48.813 36.2282 48.813 37.885V107.635C48.813 109.292 47.4698 110.635 45.813 110.635H38.563C36.9061 110.635 35.563 109.292 35.563 107.635V37.885C35.563 36.2282 36.9061 34.885 38.563 34.885H45.813Z"/>
<path d="M227 30.3177C227 28.629 228.344 27.26 230 27.26H237.25C238.907 27.26 240.25 28.629 240.25 30.3177V37.4523C240.25 39.141 238.907 40.51 237.25 40.51H230C228.344 40.51 227 39.141 227 37.4523V30.3177Z"/>
<path d="M288.23 47.9074L301.535 83.4191C302.504 86.0056 306.158 86.019 307.145 83.4396L320.762 47.8869C321.207 46.7263 322.321 45.96 323.564 45.96H331.69C333.797 45.96 335.248 48.0741 334.49 50.0395L302.429 133.165C301.982 134.322 300.87 135.085 299.63 135.085H291.599C289.499 135.085 288.049 132.983 288.794 131.02L296.908 109.651C297.169 108.964 297.169 108.206 296.908 107.519L278.953 60.2992C278.658 59.5231 277.914 59.01 277.083 59.01H261.938C260.281 59.01 258.938 60.3532 258.938 62.01V107.635C258.938 109.292 257.595 110.635 255.938 110.635H248.75C247.094 110.635 245.75 109.292 245.75 107.635V40.3225C245.75 36.9058 246.584 33.8017 248.25 31.01C249.959 28.1767 252.209 25.9267 255 24.26C257.834 22.5933 260.959 21.76 264.375 21.76H279.813C281.47 21.76 282.813 23.1032 282.813 24.76V31.885C282.813 33.5419 281.47 34.885 279.813 34.885H264.375C262.875 34.885 261.584 35.4267 260.5 36.51C259.459 37.5517 258.938 38.8225 258.938 40.3225V42.885C258.938 44.5419 260.281 45.885 261.938 45.885H278.063L285.421 45.96C286.672 45.96 287.791 46.7361 288.23 47.9074Z"/>
<path d="M37.8207 4.45045C40.3773 2.57712 43.8248 2.5183 46.4369 4.27467L46.6869 4.45045L78.8491 28.0169C81.7447 30.1387 82.3722 34.2061 80.2504 37.1018C78.1286 39.9975 74.0611 40.625 71.1655 38.5032L43.4355 18.1839C42.7318 17.6682 41.775 17.6682 41.0712 18.1839L13.3422 38.5032C10.4465 40.6249 6.37904 39.9975 4.25726 37.1018C2.13552 34.2061 2.76297 30.1386 5.65863 28.0169L37.8207 4.45045Z"/>
</mask>
<path d="M227 49.01C227 47.3532 228.344 46.01 230 46.01H237.25C238.907 46.01 240.25 47.3532 240.25 49.01V107.76C240.25 109.417 238.907 110.76 237.25 110.76H230C228.344 110.76 227 109.417 227 107.76V49.01Z" fill="url(#paint0_linear_379_57)"/>
<path d="M172.611 45.76C173.862 45.76 174.981 46.5361 175.42 47.7075L188.725 83.2191C189.694 85.8057 193.347 85.819 194.335 83.2397L207.952 47.687C208.397 46.5264 209.511 45.76 210.754 45.76H218.88C220.987 45.76 222.438 47.8742 221.679 49.8396L189.619 132.965C189.172 134.122 188.06 134.885 186.82 134.885H178.789C176.689 134.885 175.239 132.783 175.984 130.82L184.098 109.451C184.359 108.764 184.359 108.006 184.098 107.32L162.237 49.8262C161.49 47.8629 162.94 45.76 165.041 45.76H172.611Z" fill="url(#paint1_linear_379_57)"/>
<path d="M97.438 69.01C97.438 64.7183 98.4797 60.8225 100.563 57.3225C102.688 53.8225 105.521 51.0308 109.063 48.9475C112.605 46.8225 116.521 45.76 120.813 45.76H153.938C155.595 45.76 156.938 47.1032 156.938 48.76V107.51C156.938 109.167 155.595 110.51 153.938 110.51H146.75C145.094 110.51 143.75 109.167 143.75 107.51V61.9475C143.75 60.2907 142.407 58.9475 140.75 58.9475H120.813C118.021 58.9475 115.625 59.9475 113.625 61.9475C111.625 63.9058 110.625 66.3017 110.625 69.135V87.01C110.625 89.8433 111.625 92.2808 113.625 94.3225C115.625 96.3225 118.021 97.3225 120.813 97.3225H133.25C134.907 97.3225 136.25 98.6657 136.25 100.323V107.51C136.25 109.167 134.907 110.51 133.25 110.51H120.813C116.521 110.51 112.605 109.468 109.063 107.385C105.521 105.26 102.688 102.427 100.563 98.885C98.4797 95.3433 97.438 91.4267 97.438 87.135V69.01Z" fill="url(#paint2_linear_379_57)"/>
<path d="M61.3755 63.885C61.3755 60.5517 62.2088 57.51 63.8755 54.76C65.5838 52.01 67.8338 49.8225 70.6255 48.1975C73.4588 46.5725 76.5838 45.76 80.0005 45.76H91.438C93.0949 45.76 94.438 47.1032 94.438 48.76V55.885C94.438 57.5419 93.0949 58.885 91.438 58.885H80.0005C78.5005 58.885 77.2088 59.4058 76.1255 60.4475C75.0838 61.4475 74.563 62.6767 74.563 64.135V107.51C74.563 109.167 73.2199 110.51 71.563 110.51H64.3755C62.7186 110.51 61.3755 109.167 61.3755 107.51V63.885Z" fill="url(#paint3_linear_379_57)"/>
<path d="M45.813 34.885C47.4698 34.885 48.813 36.2282 48.813 37.885V107.635C48.813 109.292 47.4698 110.635 45.813 110.635H38.563C36.9061 110.635 35.563 109.292 35.563 107.635V37.885C35.563 36.2282 36.9061 34.885 38.563 34.885H45.813Z" fill="url(#paint4_linear_379_57)"/>
<path d="M227 30.3177C227 28.629 228.344 27.26 230 27.26H237.25C238.907 27.26 240.25 28.629 240.25 30.3177V37.4523C240.25 39.141 238.907 40.51 237.25 40.51H230C228.344 40.51 227 39.141 227 37.4523V30.3177Z" fill="url(#paint5_linear_379_57)"/>
<path d="M288.23 47.9074L301.535 83.4191C302.504 86.0056 306.158 86.019 307.145 83.4396L320.762 47.8869C321.207 46.7263 322.321 45.96 323.564 45.96H331.69C333.797 45.96 335.248 48.0741 334.49 50.0395L302.429 133.165C301.982 134.322 300.87 135.085 299.63 135.085H291.599C289.499 135.085 288.049 132.983 288.794 131.02L296.908 109.651C297.169 108.964 297.169 108.206 296.908 107.519L278.953 60.2992C278.658 59.5231 277.914 59.01 277.083 59.01H261.938C260.281 59.01 258.938 60.3532 258.938 62.01V107.635C258.938 109.292 257.595 110.635 255.938 110.635H248.75C247.094 110.635 245.75 109.292 245.75 107.635V40.3225C245.75 36.9058 246.584 33.8017 248.25 31.01C249.959 28.1767 252.209 25.9267 255 24.26C257.834 22.5933 260.959 21.76 264.375 21.76H279.813C281.47 21.76 282.813 23.1032 282.813 24.76V31.885C282.813 33.5419 281.47 34.885 279.813 34.885H264.375C262.875 34.885 261.584 35.4267 260.5 36.51C259.459 37.5517 258.938 38.8225 258.938 40.3225V42.885C258.938 44.5419 260.281 45.885 261.938 45.885H278.063L285.421 45.96C286.672 45.96 287.791 46.7361 288.23 47.9074Z" fill="url(#paint6_linear_379_57)"/>
<path d="M37.8207 4.45045C40.3773 2.57712 43.8248 2.5183 46.4369 4.27467L46.6869 4.45045L78.8491 28.0169C81.7447 30.1387 82.3722 34.2061 80.2504 37.1018C78.1286 39.9975 74.0611 40.625 71.1655 38.5032L43.4355 18.1839C42.7318 17.6682 41.775 17.6682 41.0712 18.1839L13.3422 38.5032C10.4465 40.6249 6.37904 39.9975 4.25726 37.1018C2.13552 34.2061 2.76297 30.1386 5.65863 28.0169L37.8207 4.45045Z" fill="url(#paint7_linear_379_57)"/>
<path d="M227 49.01C227 47.3532 228.344 46.01 230 46.01H237.25C238.907 46.01 240.25 47.3532 240.25 49.01V107.76C240.25 109.417 238.907 110.76 237.25 110.76H230C228.344 110.76 227 109.417 227 107.76V49.01Z" stroke="white" mask="url(#path-1-inside-1_379_57)"/>
<path d="M172.611 45.76C173.862 45.76 174.981 46.5361 175.42 47.7075L188.725 83.2191C189.694 85.8057 193.347 85.819 194.335 83.2397L207.952 47.687C208.397 46.5264 209.511 45.76 210.754 45.76H218.88C220.987 45.76 222.438 47.8742 221.679 49.8396L189.619 132.965C189.172 134.122 188.06 134.885 186.82 134.885H178.789C176.689 134.885 175.239 132.783 175.984 130.82L184.098 109.451C184.359 108.764 184.359 108.006 184.098 107.32L162.237 49.8262C161.49 47.8629 162.94 45.76 165.041 45.76H172.611Z" stroke="white" mask="url(#path-1-inside-1_379_57)"/>
<path d="M97.438 69.01C97.438 64.7183 98.4797 60.8225 100.563 57.3225C102.688 53.8225 105.521 51.0308 109.063 48.9475C112.605 46.8225 116.521 45.76 120.813 45.76H153.938C155.595 45.76 156.938 47.1032 156.938 48.76V107.51C156.938 109.167 155.595 110.51 153.938 110.51H146.75C145.094 110.51 143.75 109.167 143.75 107.51V61.9475C143.75 60.2907 142.407 58.9475 140.75 58.9475H120.813C118.021 58.9475 115.625 59.9475 113.625 61.9475C111.625 63.9058 110.625 66.3017 110.625 69.135V87.01C110.625 89.8433 111.625 92.2808 113.625 94.3225C115.625 96.3225 118.021 97.3225 120.813 97.3225H133.25C134.907 97.3225 136.25 98.6657 136.25 100.323V107.51C136.25 109.167 134.907 110.51 133.25 110.51H120.813C116.521 110.51 112.605 109.468 109.063 107.385C105.521 105.26 102.688 102.427 100.563 98.885C98.4797 95.3433 97.438 91.4267 97.438 87.135V69.01Z" stroke="white" mask="url(#path-1-inside-1_379_57)"/>
<path d="M61.3755 63.885C61.3755 60.5517 62.2088 57.51 63.8755 54.76C65.5838 52.01 67.8338 49.8225 70.6255 48.1975C73.4588 46.5725 76.5838 45.76 80.0005 45.76H91.438C93.0949 45.76 94.438 47.1032 94.438 48.76V55.885C94.438 57.5419 93.0949 58.885 91.438 58.885H80.0005C78.5005 58.885 77.2088 59.4058 76.1255 60.4475C75.0838 61.4475 74.563 62.6767 74.563 64.135V107.51C74.563 109.167 73.2199 110.51 71.563 110.51H64.3755C62.7186 110.51 61.3755 109.167 61.3755 107.51V63.885Z" stroke="white" mask="url(#path-1-inside-1_379_57)"/>
<path d="M45.813 34.885C47.4698 34.885 48.813 36.2282 48.813 37.885V107.635C48.813 109.292 47.4698 110.635 45.813 110.635H38.563C36.9061 110.635 35.563 109.292 35.563 107.635V37.885C35.563 36.2282 36.9061 34.885 38.563 34.885H45.813Z" stroke="white" mask="url(#path-1-inside-1_379_57)"/>
<path d="M227 30.3177C227 28.629 228.344 27.26 230 27.26H237.25C238.907 27.26 240.25 28.629 240.25 30.3177V37.4523C240.25 39.141 238.907 40.51 237.25 40.51H230C228.344 40.51 227 39.141 227 37.4523V30.3177Z" stroke="white" mask="url(#path-1-inside-1_379_57)"/>
<path d="M288.23 47.9074L301.535 83.4191C302.504 86.0056 306.158 86.019 307.145 83.4396L320.762 47.8869C321.207 46.7263 322.321 45.96 323.564 45.96H331.69C333.797 45.96 335.248 48.0741 334.49 50.0395L302.429 133.165C301.982 134.322 300.87 135.085 299.63 135.085H291.599C289.499 135.085 288.049 132.983 288.794 131.02L296.908 109.651C297.169 108.964 297.169 108.206 296.908 107.519L278.953 60.2992C278.658 59.5231 277.914 59.01 277.083 59.01H261.938C260.281 59.01 258.938 60.3532 258.938 62.01V107.635C258.938 109.292 257.595 110.635 255.938 110.635H248.75C247.094 110.635 245.75 109.292 245.75 107.635V40.3225C245.75 36.9058 246.584 33.8017 248.25 31.01C249.959 28.1767 252.209 25.9267 255 24.26C257.834 22.5933 260.959 21.76 264.375 21.76H279.813C281.47 21.76 282.813 23.1032 282.813 24.76V31.885C282.813 33.5419 281.47 34.885 279.813 34.885H264.375C262.875 34.885 261.584 35.4267 260.5 36.51C259.459 37.5517 258.938 38.8225 258.938 40.3225V42.885C258.938 44.5419 260.281 45.885 261.938 45.885H278.063L285.421 45.96C286.672 45.96 287.791 46.7361 288.23 47.9074Z" stroke="white" mask="url(#path-1-inside-1_379_57)"/>
<path d="M37.8207 4.45045C40.3773 2.57712 43.8248 2.5183 46.4369 4.27467L46.6869 4.45045L78.8491 28.0169C81.7447 30.1387 82.3722 34.2061 80.2504 37.1018C78.1286 39.9975 74.0611 40.625 71.1655 38.5032L43.4355 18.1839C42.7318 17.6682 41.775 17.6682 41.0712 18.1839L13.3422 38.5032C10.4465 40.6249 6.37904 39.9975 4.25726 37.1018C2.13552 34.2061 2.76297 30.1386 5.65863 28.0169L37.8207 4.45045Z" stroke="white" mask="url(#path-1-inside-1_379_57)"/>
</g>
<defs>
<filter id="filter0_d_379_57" x="0" y="0" width="337.693" height="138.085" filterUnits="userSpaceOnUse" color-interpolation-filters="sRGB">
<feFlood flood-opacity="0" result="BackgroundImageFix"/>
<feColorMatrix in="SourceAlpha" type="matrix" values="0 0 0 0 0 0 0 0 0 0 0 0 0 0 0 0 0 0 127 0" result="hardAlpha"/>
<feOffset/>
<feGaussianBlur stdDeviation="1.5"/>
<feComposite in2="hardAlpha" operator="out"/>
<feColorMatrix type="matrix" values="0 0 0 0 1 0 0 0 0 1 0 0 0 0 1 0 0 0 0.75 0"/>
<feBlend mode="normal" in2="BackgroundImageFix" result="effect1_dropShadow_379_57"/>
<feBlend mode="normal" in="SourceGraphic" in2="effect1_dropShadow_379_57" result="shape"/>
</filter>
<linearGradient id="paint0_linear_379_57" x1="42.2539" y1="3" x2="42.2539" y2="135" gradientUnits="userSpaceOnUse">
<stop stop-color="#306197"/>
<stop offset="1" stop-color="#0D1C2D"/>
</linearGradient>
<linearGradient id="paint1_linear_379_57" x1="42.2539" y1="3" x2="42.2539" y2="135" gradientUnits="userSpaceOnUse">
<stop stop-color="#306197"/>
<stop offset="1" stop-color="#0D1C2D"/>
</linearGradient>
<linearGradient id="paint2_linear_379_57" x1="42.2539" y1="3" x2="42.2539" y2="135" gradientUnits="userSpaceOnUse">
<stop stop-color="#306197"/>
<stop offset="1" stop-color="#0D1C2D"/>
</linearGradient>
<linearGradient id="paint3_linear_379_57" x1="42.2539" y1="3" x2="42.2539" y2="135" gradientUnits="userSpaceOnUse">
<stop stop-color="#306197"/>
<stop offset="1" stop-color="#0D1C2D"/>
</linearGradient>
<linearGradient id="paint4_linear_379_57" x1="42.2539" y1="3" x2="42.2539" y2="135" gradientUnits="userSpaceOnUse">
<stop stop-color="#306197"/>
<stop offset="1" stop-color="#0D1C2D"/>
</linearGradient>
<linearGradient id="paint5_linear_379_57" x1="42.2539" y1="3" x2="42.2539" y2="135" gradientUnits="userSpaceOnUse">
<stop stop-color="#306197"/>
<stop offset="1" stop-color="#0D1C2D"/>
</linearGradient>
<linearGradient id="paint6_linear_379_57" x1="42.2539" y1="3" x2="42.2539" y2="135" gradientUnits="userSpaceOnUse">
<stop stop-color="#306197"/>
<stop offset="1" stop-color="#0D1C2D"/>
</linearGradient>
<linearGradient id="paint7_linear_379_57" x1="42.2539" y1="3" x2="42.2539" y2="135" gradientUnits="userSpaceOnUse">
<stop stop-color="#306197"/>
<stop offset="1" stop-color="#0D1C2D"/>
</linearGradient>
</defs>
</svg>
