<svg width="333" height="134" viewBox="0 0 333 134" fill="none" xmlns="http://www.w3.org/2000/svg">
<path d="M224.5 46.51C224.5 44.8532 225.844 43.51 227.5 43.51H234.75C236.407 43.51 237.75 44.8532 237.75 46.51V105.26C237.75 106.917 236.407 108.26 234.75 108.26H227.5C225.844 108.26 224.5 106.917 224.5 105.26V46.51Z" fill="url(#paint0_linear_379_57)"/>
<path d="M170.111 43.26C171.362 43.26 172.481 44.0361 172.92 45.2075L186.225 80.7191C187.194 83.3057 190.847 83.319 191.835 80.7397L205.452 45.187C205.897 44.0264 207.011 43.26 208.254 43.26H216.38C218.487 43.26 219.938 45.3742 219.179 47.3396L187.119 130.465C186.672 131.622 185.56 132.385 184.32 132.385H176.289C174.189 132.385 172.739 130.283 173.484 128.32L181.598 106.951C181.859 106.264 181.859 105.506 181.598 104.82L159.737 47.3262C158.99 45.3629 160.44 43.26 162.541 43.26H170.111Z" fill="url(#paint1_linear_379_57)"/>
<path d="M94.938 66.51C94.938 62.2183 95.9797 58.3225 98.063 54.8225C100.188 51.3225 103.021 48.5308 106.563 46.4475C110.105 44.3225 114.021 43.26 118.313 43.26H151.438C153.095 43.26 154.438 44.6032 154.438 46.26V105.01C154.438 106.667 153.095 108.01 151.438 108.01H144.25C142.594 108.01 141.25 106.667 141.25 105.01V59.4475C141.25 57.7907 139.907 56.4475 138.25 56.4475H118.313C115.521 56.4475 113.125 57.4475 111.125 59.4475C109.125 61.4058 108.125 63.8017 108.125 66.635V84.51C108.125 87.3433 109.125 89.7808 111.125 91.8225C113.125 93.8225 115.521 94.8225 118.313 94.8225H130.75C132.407 94.8225 133.75 96.1657 133.75 97.8225V105.01C133.75 106.667 132.407 108.01 130.75 108.01H118.313C114.021 108.01 110.105 106.968 106.563 104.885C103.021 102.76 100.188 99.9267 98.063 96.385C95.9797 92.8433 94.938 88.9267 94.938 84.635V66.51Z" fill="url(#paint2_linear_379_57)"/>
<path d="M58.8755 61.385C58.8755 58.0517 59.7088 55.01 61.3755 52.26C63.0838 49.51 65.3338 47.3225 68.1255 45.6975C70.9588 44.0725 74.0838 43.26 77.5005 43.26H88.938C90.5949 43.26 91.938 44.6032 91.938 46.26V53.385C91.938 55.0419 90.5949 56.385 88.938 56.385H77.5005C76.0005 56.385 74.7088 56.9058 73.6255 57.9475C72.5838 58.9475 72.063 60.1767 72.063 61.635V105.01C72.063 106.667 70.7199 108.01 69.063 108.01H61.8755C60.2186 108.01 58.8755 106.667 58.8755 105.01V61.385Z" fill="url(#paint3_linear_379_57)"/>
<path d="M43.313 32.385C44.9698 32.385 46.313 33.7282 46.313 35.385V105.135C46.313 106.792 44.9698 108.135 43.313 108.135H36.063C34.4061 108.135 33.063 106.792 33.063 105.135V35.385C33.063 33.7282 34.4061 32.385 36.063 32.385H43.313Z" fill="url(#paint4_linear_379_57)"/>
<path d="M224.5 27.8177C224.5 26.129 225.844 24.76 227.5 24.76H234.75C236.407 24.76 237.75 26.129 237.75 27.8177V34.9523C237.75 36.641 236.407 38.01 234.75 38.01H227.5C225.844 38.01 224.5 36.641 224.5 34.9523V27.8177Z" fill="url(#paint5_linear_379_57)"/>
<path d="M285.73 45.4074L299.035 80.9191C300.004 83.5056 303.658 83.519 304.645 80.9396L318.262 45.3869C318.707 44.2263 319.821 43.46 321.064 43.46H329.19C331.297 43.46 332.748 45.5741 331.99 47.5395L299.929 130.665C299.482 131.822 298.37 132.585 297.13 132.585H289.099C286.999 132.585 285.549 130.483 286.294 128.52L294.408 107.151C294.669 106.464 294.669 105.706 294.408 105.019L276.453 57.7992C276.158 57.0231 275.414 56.51 274.583 56.51H259.438C257.781 56.51 256.438 57.8532 256.438 59.51V105.135C256.438 106.792 255.095 108.135 253.438 108.135H246.25C244.594 108.135 243.25 106.792 243.25 105.135V37.8225C243.25 34.4058 244.084 31.3017 245.75 28.51C247.459 25.6767 249.709 23.4267 252.5 21.76C255.334 20.0933 258.459 19.26 261.875 19.26H277.313C278.97 19.26 280.313 20.6032 280.313 22.26V29.385C280.313 31.0419 278.97 32.385 277.313 32.385H261.875C260.375 32.385 259.084 32.9267 258 34.01C256.959 35.0517 256.438 36.3225 256.438 37.8225V40.385C256.438 42.0419 257.781 43.385 259.438 43.385H275.563L282.921 43.46C284.172 43.46 285.291 44.2361 285.73 45.4074Z" fill="url(#paint6_linear_379_57)"/>
<path d="M35.3207 1.95045C37.8773 0.0771209 41.3248 0.0182976 43.9369 1.77467L44.1869 1.95045L76.3491 25.5169C79.2447 27.6387 79.8722 31.7061 77.7504 34.6018C75.6286 37.4975 71.5611 38.125 68.6655 36.0032L40.9355 15.6839C40.2318 15.1682 39.275 15.1682 38.5712 15.6839L10.8422 36.0032C7.94654 38.1249 3.87904 37.4975 1.75726 34.6018C-0.364478 31.7061 0.262966 27.6386 3.15863 25.5169L35.3207 1.95045Z" fill="url(#paint7_linear_379_57)"/>
<path d="M224.5 46.51C224.5 44.8532 225.844 43.51 227.5 43.51H234.75C236.407 43.51 237.75 44.8532 237.75 46.51V105.26C237.75 106.917 236.407 108.26 234.75 108.26H227.5C225.844 108.26 224.5 106.917 224.5 105.26V46.51Z" stroke="white"/>
<path d="M170.111 43.26C171.362 43.26 172.481 44.0361 172.92 45.2075L186.225 80.7191C187.194 83.3057 190.847 83.319 191.835 80.7397L205.452 45.187C205.897 44.0264 207.011 43.26 208.254 43.26H216.38C218.487 43.26 219.938 45.3742 219.179 47.3396L187.119 130.465C186.672 131.622 185.56 132.385 184.32 132.385H176.289C174.189 132.385 172.739 130.283 173.484 128.32L181.598 106.951C181.859 106.264 181.859 105.506 181.598 104.82L159.737 47.3262C158.99 45.3629 160.44 43.26 162.541 43.26H170.111Z" stroke="white"/>
<path d="M94.938 66.51C94.938 62.2183 95.9797 58.3225 98.063 54.8225C100.188 51.3225 103.021 48.5308 106.563 46.4475C110.105 44.3225 114.021 43.26 118.313 43.26H151.438C153.095 43.26 154.438 44.6032 154.438 46.26V105.01C154.438 106.667 153.095 108.01 151.438 108.01H144.25C142.594 108.01 141.25 106.667 141.25 105.01V59.4475C141.25 57.7907 139.907 56.4475 138.25 56.4475H118.313C115.521 56.4475 113.125 57.4475 111.125 59.4475C109.125 61.4058 108.125 63.8017 108.125 66.635V84.51C108.125 87.3433 109.125 89.7808 111.125 91.8225C113.125 93.8225 115.521 94.8225 118.313 94.8225H130.75C132.407 94.8225 133.75 96.1657 133.75 97.8225V105.01C133.75 106.667 132.407 108.01 130.75 108.01H118.313C114.021 108.01 110.105 106.968 106.563 104.885C103.021 102.76 100.188 99.9267 98.063 96.385C95.9797 92.8433 94.938 88.9267 94.938 84.635V66.51Z" stroke="white"/>
<path d="M58.8755 61.385C58.8755 58.0517 59.7088 55.01 61.3755 52.26C63.0838 49.51 65.3338 47.3225 68.1255 45.6975C70.9588 44.0725 74.0838 43.26 77.5005 43.26H88.938C90.5949 43.26 91.938 44.6032 91.938 46.26V53.385C91.938 55.0419 90.5949 56.385 88.938 56.385H77.5005C76.0005 56.385 74.7088 56.9058 73.6255 57.9475C72.5838 58.9475 72.063 60.1767 72.063 61.635V105.01C72.063 106.667 70.7199 108.01 69.063 108.01H61.8755C60.2186 108.01 58.8755 106.667 58.8755 105.01V61.385Z" stroke="white"/>
<path d="M43.313 32.385C44.9698 32.385 46.313 33.7282 46.313 35.385V105.135C46.313 106.792 44.9698 108.135 43.313 108.135H36.063C34.4061 108.135 33.063 106.792 33.063 105.135V35.385C33.063 33.7282 34.4061 32.385 36.063 32.385H43.313Z" stroke="white"/>
<path d="M224.5 27.8177C224.5 26.129 225.844 24.76 227.5 24.76H234.75C236.407 24.76 237.75 26.129 237.75 27.8177V34.9523C237.75 36.641 236.407 38.01 234.75 38.01H227.5C225.844 38.01 224.5 36.641 224.5 34.9523V27.8177Z" stroke="white"/>
<path d="M285.73 45.4074L299.035 80.9191C300.004 83.5056 303.658 83.519 304.645 80.9396L318.262 45.3869C318.707 44.2263 319.821 43.46 321.064 43.46H329.19C331.297 43.46 332.748 45.5741 331.99 47.5395L299.929 130.665C299.482 131.822 298.37 132.585 297.13 132.585H289.099C286.999 132.585 285.549 130.483 286.294 128.52L294.408 107.151C294.669 106.464 294.669 105.706 294.408 105.019L276.453 57.7992C276.158 57.0231 275.414 56.51 274.583 56.51H259.438C257.781 56.51 256.438 57.8532 256.438 59.51V105.135C256.438 106.792 255.095 108.135 253.438 108.135H246.25C244.594 108.135 243.25 106.792 243.25 105.135V37.8225C243.25 34.4058 244.084 31.3017 245.75 28.51C247.459 25.6767 249.709 23.4267 252.5 21.76C255.334 20.0933 258.459 19.26 261.875 19.26H277.313C278.97 19.26 280.313 20.6032 280.313 22.26V29.385C280.313 31.0419 278.97 32.385 277.313 32.385H261.875C260.375 32.385 259.084 32.9267 258 34.01C256.959 35.0517 256.438 36.3225 256.438 37.8225V40.385C256.438 42.0419 257.781 43.385 259.438 43.385H275.563L282.921 43.46C284.172 43.46 285.291 44.2361 285.73 45.4074Z" stroke="white"/>
<path d="M35.3207 1.95045C37.8773 0.0771209 41.3248 0.0182976 43.9369 1.77467L44.1869 1.95045L76.3491 25.5169C79.2447 27.6387 79.8722 31.7061 77.7504 34.6018C75.6286 37.4975 71.5611 38.125 68.6655 36.0032L40.9355 15.6839C40.2318 15.1682 39.275 15.1682 38.5712 15.6839L10.8422 36.0032C7.94654 38.1249 3.87904 37.4975 1.75726 34.6018C-0.364478 31.7061 0.262966 27.6386 3.15863 25.5169L35.3207 1.95045Z" stroke="white"/>
<defs>
<linearGradient id="paint0_linear_379_57" x1="39.7539" y1="0.5" x2="39.7539" y2="132.5" gradientUnits="userSpaceOnUse">
<stop stop-color="#306197"/>
<stop offset="1" stop-color="#0D1C2D"/>
</linearGradient>
<linearGradient id="paint1_linear_379_57" x1="39.7539" y1="0.5" x2="39.7539" y2="132.5" gradientUnits="userSpaceOnUse">
<stop stop-color="#306197"/>
<stop offset="1" stop-color="#0D1C2D"/>
</linearGradient>
<linearGradient id="paint2_linear_379_57" x1="39.7539" y1="0.5" x2="39.7539" y2="132.5" gradientUnits="userSpaceOnUse">
<stop stop-color="#306197"/>
<stop offset="1" stop-color="#0D1C2D"/>
</linearGradient>
<linearGradient id="paint3_linear_379_57" x1="39.7539" y1="0.5" x2="39.7539" y2="132.5" gradientUnits="userSpaceOnUse">
<stop stop-color="#306197"/>
<stop offset="1" stop-color="#0D1C2D"/>
</linearGradient>
<linearGradient id="paint4_linear_379_57" x1="39.7539" y1="0.5" x2="39.7539" y2="132.5" gradientUnits="userSpaceOnUse">
<stop stop-color="#306197"/>
<stop offset="1" stop-color="#0D1C2D"/>
</linearGradient>
<linearGradient id="paint5_linear_379_57" x1="39.7539" y1="0.5" x2="39.7539" y2="132.5" gradientUnits="userSpaceOnUse">
<stop stop-color="#306197"/>
<stop offset="1" stop-color="#0D1C2D"/>
</linearGradient>
<linearGradient id="paint6_linear_379_57" x1="39.7539" y1="0.5" x2="39.7539" y2="132.5" gradientUnits="userSpaceOnUse">
<stop stop-color="#306197"/>
<stop offset="1" stop-color="#0D1C2D"/>
</linearGradient>
<linearGradient id="paint7_linear_379_57" x1="39.7539" y1="0.5" x2="39.7539" y2="132.5" gradientUnits="userSpaceOnUse">
<stop stop-color="#306197"/>
<stop offset="1" stop-color="#0D1C2D"/>
</linearGradient>
</defs>
</svg>
